# xmcd
#
# Track frame offsets: 
#        150
#        21092
#        35061
#        56718
#        77007
#        93885
#        109824
#        128814
#        146141
#        161542
#        177934
#        194442
#        212781
#        229632
#        249598
#        264907
#
# Disc length: 3732 seconds
#
# Revision: 0
# Processed by: cddbd v1.5.2PL0 Copyright (c) Steve Scherf et al.
# Submitted via: ExactAudioCopyFreeDBPlugin 1.0
#
DISCID=dc0e9210
DTITLE=Buddaheads - Raw
DYEAR=2007
DGENRE=Blues
TTITLE0=Rich Man
TTITLE1=Big Time Baby
TTITLE2=What's Come Over You ?
TTITLE3=Road to Ruin
TTITLE4=Stop Talkin' That Way
TTITLE5=At Ten She's a Two
TTITLE6=Just For Fun
TTITLE7=Cross the Water
TTITLE8=Mary Don't Weep
TTITLE9=How Far Can You Fall ?
TTITLE10=Devil's Son
TTITLE11=It's Hard to Please a Woman
TTITLE12=Matter of Time
TTITLE13=Can't Keep a Hold On You
TTITLE14=Chicken Head
TTITLE15=Devil's Playground
EXTD=
EXTT0=
EXTT1=
EXTT2=
EXTT3=
EXTT4=
EXTT5=
EXTT6=
EXTT7=
EXTT8=
EXTT9=
EXTT10=
EXTT11=
EXTT12=
EXTT13=
EXTT14=
EXTT15=
PLAYORDER=
